<svg id="Layer_1" data-name="Layer 1" xmlns="http://www.w3.org/2000/svg" viewBox="0 0 232.5 202.51"><defs><style>.cls-1,.cls-3{fill:#fff;}.cls-2{fill:none;stroke-width:1.5px;}.cls-2,.cls-3{stroke:#fff;stroke-miterlimit:10;}</style></defs><title>coverLogo</title><path class="cls-1" d="M128.1,84.7h12.3a.75.75,0,1,0,0-1.5H128.1a.75.75,0,1,0,0,1.5Z" transform="translate(-12.41 -18.1)"/><path class="cls-1" d="M128.1,97.4h12.3a.75.75,0,0,0,0-1.5H128.1a.75.75,0,0,0,0,1.5Z" transform="translate(-12.41 -18.1)"/><line class="cls-2" x1="121.79" y1="16.8" x2="121.79"/><line class="cls-2" x1="121.99" y1="17.5" x2="130.39" y2="3"/><line class="cls-2" x1="122.69" y1="18.3" x2="114.29" y2="3.8"/><polygon class="cls-2" points="57.4 140.6 121.8 16.8 121.8 114.2 104.8 146 80.5 146.3 57.4 140.6"/><polygon class="cls-2" points="186.19 140.6 121.8 16.8 121.8 114.2 138.79 146 163.09 146.3 186.19 140.6"/><polygon class="cls-2" points="138.5 145.4 155.19 131.5 122.59 114.2 138.5 145.4"/><polygon class="cls-3" points="105.5 145.4 134 136.9 121.8 114.2 105.5 145.4"/><path class="cls-1" d="M128.1,110.2h12.3a.75.75,0,1,0,0-1.5H128.1a.75.75,0,1,0,0,1.5Z" transform="translate(-12.41 -18.1)"/><path class="cls-1" d="M88.8,150.6l8.7-15c.5-.8-.8-1.6-1.3-.8l-8.7,15c-.5.8.8,1.6,1.3.8Z" transform="translate(-12.41 -18.1)"/><path class="cls-1" d="M180.2,148.3l-8.7-15a.76.76,0,0,0-1.3.8l8.7,15c.5.8,1.8,0,1.3-.8Z" transform="translate(-12.41 -18.1)"/><path class="cls-2" d="M38.8,213.5V164.4s50.5,9.1,86.4-1.9c7.6-2.3,12.9-3.1,22.3-4.4,1.1-.2.4-.3,2.1,2.5,1.1,1.8.9,2.5,2.2,2.6,23.7.9,20.1,1.6,23.7.9,11.8-2.6,23.1-5.7,23.1-5.7,9,.7,15.5,1.1,17.1,1.7,5.9,2.1.5,15.5-.3,46.7,0,0-55.5-8.1-87.1,0C93.3,215.7,38.8,213.5,38.8,213.5Z" transform="translate(-12.41 -18.1)"/><polygon class="cls-2" points="26.39 156.3 1.5 156.3 17.89 178.3 6.39 201.6 22.89 199.6 51.2 195.6 26.39 195.4 26.39 156.3"/><path class="cls-2" d="M218.5,168.1l25,4.3L223.9,196l13.2,21.6L220,213.5s-13-4-26.9-8.3l22.3,1.4Z" transform="translate(-12.41 -18.1)"/><path class="cls-1" d="M68.9,208.2a1.88,1.88,0,0,1-.4-.9q-.75-8.4-1.5-14.1a7.22,7.22,0,0,0-1.5,0,9.82,9.82,0,0,0-2.6.5,54.4,54.4,0,0,0,1,6.7c.5,3.2.8,5.4.9,6.8a1.2,1.2,0,0,1-.2.8c-.2.2-.4.4-.6.4-.4,0-.8-.6-1.2-1.7a77,77,0,0,1-2.1-11.3c-.5-3.9-1-8.1-1.3-12.6-.1-.8-.2-2-.3-3.5,0-.5.2-.7.7-.8a2.77,2.77,0,0,1,.9.1c.3.1.6.2.7.4a15.54,15.54,0,0,0,.1,3c.1,1.1.3,2.5.5,4.1.2,1.8.4,3.2.5,4.1l.1.7v.8a4.4,4.4,0,0,0,.2,1c.2,0,.5-.1.9-.1s.8-.1,1.3-.2a12.22,12.22,0,0,1,2.2-.3c-.2-2.3-.4-4.5-.6-6.4L66,179l-.1-1.1a4.1,4.1,0,0,1,1.1.1,1.61,1.61,0,0,1,.7.4,2.62,2.62,0,0,1,.6,1.5l.1.9c.2,2.3.7,6.7,1.5,13.1.8,5.8,1.2,10.2,1.5,13.1a1.69,1.69,0,0,1-.3,1,1.05,1.05,0,0,1-.9.5C69.4,208.5,69.1,208.4,68.9,208.2Z" transform="translate(-12.41 -18.1)"/><path class="cls-1" d="M75.5,206.2c-.1-.6.4-1,1.3-1.1l.5-.1h.4a.76.76,0,0,0,.5-.2c.1-.1.1-.4.1-.7-.2-2.3-.7-5.3-1.3-9.2s-1.1-7.1-1.3-9.2c-.1-.7-.1-1.4-.2-2l-.2-2c-.1-.9-.2-1.6-.3-2.2-.3.1-.7.2-1,.3-.7.1-1.1-.2-1.1-.9a1.21,1.21,0,0,1,.6-.9,5.93,5.93,0,0,1,1.6-.7,24.89,24.89,0,0,1,3.2-.6,1.64,1.64,0,0,1,1,.2,1.16,1.16,0,0,1,.5.7,1.08,1.08,0,0,1-.2.8,1,1,0,0,1-.7.4H78a.85.85,0,0,0-.6.2.76.76,0,0,0-.1.7c.3,2.8.8,6.7,1.7,11.6.9,5.2,1.4,9,1.7,11.6l.1,1.5c.2,0,.5-.1.9-.1,1.3-.1,1.9.3,2,1.2v.2l-1.1.8h-.3a7.75,7.75,0,0,1-.9.1c-1,.2-1.6.2-1.9.3C76.9,207.2,75.6,206.9,75.5,206.2Z" transform="translate(-12.41 -18.1)"/><path class="cls-1" d="M98.4,205.9h-.5a95.4,95.4,0,0,0-3.6-9.9,47.33,47.33,0,0,0-3.9-7.4l-.8,1.7a3.46,3.46,0,0,0-.3,1.2,8.66,8.66,0,0,0,.1,1.8c.1.8.3,2,.5,3.6s.4,2.8.5,3.7l.4,3.3c.2,1.4-.3,2.2-1.3,2.3s-1.4-.6-1.6-2.1q-.15-1.8-.3-5.4a38.52,38.52,0,0,0-.3-5.4l-.3-3.4-.5-4.1a35.4,35.4,0,0,0-.8-4.5,31.48,31.48,0,0,1-.7-3.7c0-.3,0-.7.3-.9a1.35,1.35,0,0,1,.9-.5c1.1-.1,1.8.9,2,3l.7,8.2.6-2c.7-2.3,1.5-4.7,2.3-6.9a23.86,23.86,0,0,1,1.3-3c.4-.8.8-1.2,1.1-1.2a1.49,1.49,0,0,1,.9.2,1.16,1.16,0,0,1,.5.7,37,37,0,0,1-1.9,5.2,40.35,40.35,0,0,0-2.2,6.1l.1.7c.6,1,2.1,4.1,4.7,9.3s3.8,8,3.9,8.3a.83.83,0,0,1-.3.8,1.78,1.78,0,0,1-1,.4A.75.75,0,0,0,98.4,205.9Z" transform="translate(-12.41 -18.1)"/><path class="cls-1" d="M105.4,204.3a1.07,1.07,0,0,1-.9-1L102,180.2a7.13,7.13,0,0,0-.5-2,6.42,6.42,0,0,1-.5-2v-.1a11.91,11.91,0,0,1,1-1.6c.4,0,1-.2,1.7-.3a5.55,5.55,0,0,1,1.7-.3,2.2,2.2,0,0,1,1.4.2,1.25,1.25,0,0,1,.8.8c.1.8-.6,1.3-1.9,1.4l-.6.1h-.6a2,2,0,0,0-.5.1c.1.9.3,2,.5,3.2l.2,1.1.3,2.2a14.17,14.17,0,0,1,.1,2.3l.2,2.2.6-.2a5.62,5.62,0,0,1,1.5-.4,1.49,1.49,0,0,1,.9.2c.3.2.5.4.5.7a1.49,1.49,0,0,1-.2.9,1.37,1.37,0,0,1-.8.5h-.5l-.6.1a1,1,0,0,0-.9.4l1.3,12.3,2.5-.4c1.7-.2,2.6.1,2.7.8v.2a1.91,1.91,0,0,1-.9.9,3.94,3.94,0,0,1-1.4.5l-1.5.2-1.4.2A8.62,8.62,0,0,1,105.4,204.3Z" transform="translate(-12.41 -18.1)"/><path class="cls-1" d="M127.6,201.1a7.22,7.22,0,0,1-2.6-2.3,7.47,7.47,0,0,1-1.1-2.9,22.84,22.84,0,0,1,0-3.7,6.75,6.75,0,0,1,.3-1.7c.1-.3.1-.6.2-.8s.1-.5.2-.7a13.78,13.78,0,0,0,.6-1.6c.3-.6.5-1.2.7-1.6.1-.2.3-.9.8-1.9-.1-.7-.2-1.6-.4-2.7s-.3-2.1-.4-2.7l-.3-3.3a2.65,2.65,0,0,1,.6-2.2,2.69,2.69,0,0,1,2-.9,4.82,4.82,0,0,1,3.3.8,3.16,3.16,0,0,1,1.7,2.4,8.68,8.68,0,0,1-.5,4.3,16.13,16.13,0,0,1-2.4,4.1,1.63,1.63,0,0,0-.3.6c-.4.7-.7,1.2-.6,1.4a16.21,16.21,0,0,0,1.2,3.6,35.82,35.82,0,0,0,2.4,4.8,10,10,0,0,0,2.2,2.9,16,16,0,0,0,.7-7.2v-.2c-.2,0-.4,0-.4-.1l-.2-.1-.1-.2-.1-.1-.1-.1-.1-1c.8-.1,1.7-.2,2.8-.4a9,9,0,0,0,2.2-.6c.9.1,1.4.4,1.4.9a1,1,0,0,1-.6.9,3.77,3.77,0,0,1-1.6.4H139l-1.1.1c.4,4.2.1,7.1-1,8.7a4.52,4.52,0,0,0,3,1l.9-.2.9-.1.9.5a1,1,0,0,1-.5,1.1,4.94,4.94,0,0,1-1.7.5,8.6,8.6,0,0,1-4.5-1,9.33,9.33,0,0,1-4.9,2A5.52,5.52,0,0,1,127.6,201.1Zm5.2-1.5a3.35,3.35,0,0,0,1.4-.9,28.31,28.31,0,0,1-6.7-11.7,13.06,13.06,0,0,0-1.6,8.1,6.68,6.68,0,0,0,1.4,3.6,3.25,3.25,0,0,0,1.6,1.2,3.61,3.61,0,0,0,2.1.3A18.94,18.94,0,0,0,132.8,199.6Zm-2.3-20.1a6.34,6.34,0,0,0,.8-2.8,4.64,4.64,0,0,0-.9-1.9,2.23,2.23,0,0,0-1.6-1c-.4,0-.8.4-1.1,1.1l.2,2.1.3,2.7q.15,1.2.3,2.7v.4A18.12,18.12,0,0,0,130.5,179.5Z" transform="translate(-12.41 -18.1)"/><path class="cls-1" d="M162,199a1.88,1.88,0,0,1-.4-.9c-.4-5.6-.9-10.3-1.4-14.1a7.22,7.22,0,0,0-1.5,0,9.82,9.82,0,0,0-2.6.5c.1,1.5.4,3.7.9,6.7.5,3.2.8,5.4.9,6.8a2.35,2.35,0,0,1-.2.8,1,1,0,0,1-.7.4q-.6,0-1.2-1.8a68.55,68.55,0,0,1-2-11.3c-.5-3.9-.9-8.1-1.3-12.6-.1-.8-.2-2-.3-3.5,0-.5.2-.7.7-.8a2.77,2.77,0,0,1,.9.1c.3.1.6.2.7.4a29.94,29.94,0,0,0,0,3,40.87,40.87,0,0,0,.5,4.1c.2,1.8.4,3.2.5,4.1l.1.7v.8a4.4,4.4,0,0,0,.2,1,3.44,3.44,0,0,0,.9-.1c.4-.1.8-.1,1.3-.2a12.22,12.22,0,0,1,2.2-.3c-.2-2.3-.4-4.5-.6-6.4l-.6-6.7-.1-1.1a4.1,4.1,0,0,1,1.1.1,1.61,1.61,0,0,1,.7.4,2.62,2.62,0,0,1,.6,1.5l.1.9c.2,2.3.7,6.7,1.5,13.1.7,5.8,1.2,10.2,1.4,13.2a1.69,1.69,0,0,1-.3,1,1.05,1.05,0,0,1-.9.5A1.44,1.44,0,0,1,162,199Z" transform="translate(-12.41 -18.1)"/><path class="cls-1" d="M173.1,196.6a12.82,12.82,0,0,1-2.8-5.3,38.29,38.29,0,0,1-1.4-7.2c-.3-2.3-.5-4.9-.6-7.6l-.2-3.3c0-.9-.1-1.9-.1-3a.91.91,0,0,1-.4-.8,1.37,1.37,0,0,1,1.3-1.3c1.1-.1,1.7.9,1.8,2.8.1,1.2.3,3.5.6,7s.5,5.7.6,7a7.81,7.81,0,0,1,.5,2.1,13.81,13.81,0,0,1,.3,2.6,11.53,11.53,0,0,0,.4,2.2,27.73,27.73,0,0,0,1,2.6,5.43,5.43,0,0,0,1.7,2.2,2.87,2.87,0,0,0,2,.8,1.53,1.53,0,0,0,1-.4,1.88,1.88,0,0,0,.5-1.1,18,18,0,0,0,.2-2.2l-.4-7.8a35,35,0,0,0-.5-3.7c-.3-1.7-.4-2.9-.5-3.8v-.3c0-.4-.1-.8-.1-1.2l-.1-1.2a29.19,29.19,0,0,0-.3-3.4c-.2-1.4-.3-2.5-.4-3.4a.82.82,0,0,1,.5-.8,2.1,2.1,0,0,1,1.1-.4l1.2.9v.7a5.74,5.74,0,0,1-.1,1.2,10.3,10.3,0,0,0-.1,1.3c.1,2.4.5,5.8,1,10,.5,4.5.8,7.9,1,10.4a9.75,9.75,0,0,1-.3,3.5,3.48,3.48,0,0,1-.7,1.5,4,4,0,0,1-1.2,1,3.94,3.94,0,0,1-2,.5A5.7,5.7,0,0,1,173.1,196.6Z" transform="translate(-12.41 -18.1)"/><path class="cls-1" d="M190,197a2.3,2.3,0,0,1-.4-1.4c0-.9,0-2,.1-3.2l.1-1v-2.1c0-.9-.2-3-.5-6.2s-.4-5.3-.5-6.2v-3.6a9,9,0,0,0-.5-3.7c-.2,0-.6.1-1.2.1l-1.3.1a1.69,1.69,0,0,1-1-.3,1,1,0,0,1-.5-.8c0-.3.3-.6,1.1-.9a28.48,28.48,0,0,1,5.4-.8,17.67,17.67,0,0,1,1.9-.1,1.69,1.69,0,0,1,1,.3,1,1,0,0,1,.5.8.91.91,0,0,1-.4.8,1.69,1.69,0,0,1-1,.3h-2.1a48.14,48.14,0,0,1,.4,4.9v5.2a42.14,42.14,0,0,0,.3,4.6c.2,2.2.3,3.7.3,4.6a26,26,0,0,0,.3,3.6c.2,1.4.2,2.6.3,3.6,0,1.3-.4,2-1.3,2A1.1,1.1,0,0,1,190,197Z" transform="translate(-12.41 -18.1)"/></svg>